<svg fill="none" height="18" viewBox="0 0 18 18" width="18" xmlns="http://www.w3.org/2000/svg"><path d="m17.9898 14.2053c-.0429-.2654-.2093-.4923-.4585-.6271l-3.6861-2.1724-.0304-.017c-.1545-.0774-.3252-.1171-.4981-.1158-.3088 0-.6037.1171-.8084.3223l-1.088 1.0888c-.0465.0443-.1983.1083-.2443.1106-.0126-.001-1.2659-.0913-3.57325-2.3995-2.30323-2.30342-2.40172-3.56095-2.40172-3.56095.00129-.0643.06454-.21555.10954-.26236l.92778-.92778c.32683-.3277.4248-.87094.23091-1.29174l-2.04892-3.856456c-.14888-.306603-.43817-.495914-.75909-.495914-.22705 0-.44614.0941414-.6174.265191l-2.529005 2.524069c-.242487.24127-.4512877.6631-.4968021 1.00263-.0221144.1623-.4708299 4.0365 4.8391871 9.34881 4.50798 4.5087 8.02317 4.8591 8.99387 4.8591.1182.0015.2364-.0046.3538-.0183.3384-.0453.7596-.2536 1.0006-.4951l2.5269-2.5274c.2062-.2074.3004-.4813.2574-.7537z" fill="#00053a"/></svg>